<?xml version="1.0" standalone="no"?>
<!DOCTYPE svg PUBLIC "-//W3C//DTD SVG 20010904//EN"
 "http://www.w3.org/TR/2001/REC-SVG-20010904/DTD/svg10.dtd">
<svg version="1.0" xmlns="http://www.w3.org/2000/svg"
 width="2560.000000pt" height="1440.000000pt" viewBox="0 0 2560.000000 1440.000000"
 preserveAspectRatio="xMidYMid meet">
<metadata>
Created by potrace 1.16, written by Peter Selinger 2001-2019
</metadata>
<g transform="translate(0.000000,1440.000000) scale(0.100000,-0.100000)"
fill="#000000" stroke="none">
<path d="M0 7200 l0 -7200 10571 0 10572 0 261 64 c240 59 602 160 788 219 65
21 75 22 70 8 -4 -13 -1 -12 16 3 12 11 22 17 23 15 0 -2 2 -12 4 -22 6 -34
18 -33 13 1 -3 20 -1 29 5 23 11 -11 5 -56 -8 -56 -5 0 -16 -4 -24 -9 -9 -6
-12 -5 -8 0 3 6 2 16 -4 24 -7 12 -9 11 -9 -6 0 -11 -9 -29 -21 -40 -11 -10
-20 -14 -19 -9 6 30 -3 24 -13 -8 -7 -21 -15 -37 -18 -35 -4 2 -16 -6 -28 -16
-12 -11 -21 -15 -21 -10 0 5 -9 -2 -20 -16 -15 -19 -16 -28 -7 -39 10 -12 9
-13 -3 -6 -24 15 -42 15 -36 0 3 -8 -2 -12 -12 -10 -9 1 -23 -2 -29 -8 -7 -5
-13 -6 -13 -1 0 5 -7 -2 -16 -14 -8 -12 -19 -20 -24 -17 -5 3 -8 -3 -7 -14 1
-17 9 -19 73 -19 68 0 72 1 69 20 -3 12 -1 17 3 14 4 -4 7 -13 7 -19 0 -9 421
-13 1733 -15 l1732 -2 -1 1237 c0 760 -4 1246 -10 1258 -9 19 -9 18 -5 -2 2
-13 -1 -23 -6 -23 -6 0 -4 -8 3 -17 10 -11 10 -14 2 -9 -8 4 -13 2 -13 -6 0
-9 -3 -9 -10 2 -9 14 -15 7 -11 -14 1 -5 -6 -3 -15 5 -16 12 -17 12 -11 -4 4
-11 3 -16 -3 -12 -6 3 -10 2 -10 -2 0 -5 -7 -18 -15 -29 -13 -16 -13 -13 1 16
10 23 12 31 3 23 -21 -21 -34 -15 -15 6 10 11 16 26 13 33 -3 8 -6 5 -6 -7 -1
-17 -3 -18 -12 -5 -8 12 -9 11 -7 -5 2 -13 -2 -19 -12 -17 -8 2 -12 0 -8 -4 4
-4 4 -12 -2 -18 -5 -7 -5 -17 2 -26 8 -12 9 -12 4 3 -4 12 -2 16 6 11 7 -5 8
-3 3 6 -5 9 -4 11 3 6 9 -5 9 -13 2 -26 -11 -20 -31 -37 -29 -23 3 20 -2 27
-12 13 -8 -12 -9 -11 -5 6 4 13 2 21 -6 21 -9 0 -12 -12 -10 -37 2 -21 0 -40
-5 -43 -4 -3 -8 9 -8 26 0 20 -5 31 -12 30 -7 -2 -13 3 -13 10 -1 6 -8 -1 -17
-18 -10 -16 -16 -38 -14 -47 1 -9 -7 -22 -19 -28 -11 -6 -17 -16 -14 -22 4 -7
3 -8 -5 -4 -6 4 -9 12 -6 17 4 5 1 9 -4 9 -6 0 -10 5 -8 11 1 6 -6 13 -16 14
-17 3 -17 2 -3 -14 9 -10 16 -24 16 -31 0 -9 -5 -7 -16 6 -12 14 -14 15 -11 3
6 -17 -10 -39 -27 -39 -5 0 -1 7 10 15 12 9 14 14 6 15 -8 0 -10 5 -6 13 5 8
2 8 -9 -2 -9 -7 -17 -22 -17 -32 0 -17 -17 -25 -43 -20 -5 1 -6 -3 -2 -9 3 -5
-1 -10 -10 -10 -9 0 -14 4 -10 9 3 5 1 12 -4 15 -5 4 -12 2 -16 -4 -4 -6 -12
-7 -18 -3 -7 3 -4 -3 6 -14 21 -25 22 -37 0 -54 -10 -8 -14 -9 -10 -2 4 6 3
14 -2 17 -5 3 -11 -2 -13 -12 -3 -10 -14 -18 -25 -19 -20 -2 -21 2 -13 37 0 3
7 -4 16 -15 16 -21 15 -24 5 34 -1 2 -9 -3 -19 -13 -13 -11 -18 -28 -17 -51 2
-19 0 -34 -4 -33 -3 0 -9 -1 -13 -2 -5 -1 -14 -3 -20 -4 -7 0 -13 -7 -13 -13
0 -7 -4 -13 -8 -12 -5 0 -14 -7 -21 -16 -10 -15 -12 -14 -12 4 0 11 4 17 8 15
4 -3 5 2 2 11 -4 9 -7 15 -8 13 -1 -2 -8 -12 -16 -22 -11 -15 -12 -18 -2 -12
11 7 12 4 3 -13 -7 -11 -17 -20 -23 -18 -7 1 -12 -4 -13 -10 0 -7 -4 -13 -8
-12 -5 1 -21 -11 -36 -25 -20 -19 -30 -23 -38 -15 -6 6 -9 19 -6 28 4 14 3 14
-6 1 -6 -8 -8 -22 -5 -32 2 -9 0 -19 -5 -23 -7 -3 -8 0 -5 10 5 13 2 13 -24
-2 -17 -10 -29 -20 -26 -24 2 -3 -6 -15 -17 -25 -11 -10 -20 -14 -19 -9 5 22
-1 29 -11 15 -9 -13 -10 -12 -5 2 3 10 2 19 -2 22 -4 3 -9 -9 -10 -25 -2 -21
1 -28 9 -23 8 4 9 3 5 -5 -6 -8 -12 -9 -20 -2 -7 6 -17 7 -21 3 -5 -4 -5 -1
-1 5 12 21 16 54 5 48 -5 -4 -7 -10 -5 -14 8 -12 -22 -50 -36 -47 -7 1 -20 5
-28 10 -12 7 -13 6 -2 -5 6 -7 12 -20 12 -28 0 -11 -3 -11 -13 4 -11 14 -16
15 -22 5 -5 -9 -4 -11 3 -6 16 9 15 -7 0 -22 -9 -9 -20 6 -46 60 -30 61 -61
99 -206 248 -179 182 -241 263 -275 356 -52 139 -12 236 186 448 95 100 96
105 58 211 -13 39 -25 88 -25 110 0 50 28 111 67 148 l30 28 579 -402 c319
-221 600 -417 627 -435 l47 -34 0 5915 0 5915 -12800 0 -12800 0 0 -7200z
m18449 2143 c58 -28 97 -58 161 -123 132 -132 190 -268 190 -450 0 -182 -58
-318 -190 -450 -95 -95 -184 -147 -300 -174 -82 -20 -217 -20 -297 -1 -67 16
-172 63 -213 95 l-25 19 40 -11 c62 -17 230 -14 304 6 176 48 325 167 406 327
48 94 67 178 67 289 0 111 -19 195 -67 289 -33 65 -96 147 -151 195 -42 37
-13 32 75 -11z m-5329 -5675 c0 -13 -20 -9 -21 5 0 9 -2 9 -6 -1 -4 -10 -8
-10 -19 -1 -10 8 -14 8 -14 0 0 -19 5 -26 15 -23 5 2 6 0 2 -4 -19 -19 -35
-12 -31 15 5 25 5 25 -10 6 -8 -11 -13 -22 -11 -25 2 -3 -7 -6 -20 -6 -13 0
-21 4 -19 8 3 5 9 6 14 3 4 -3 13 2 19 9 9 11 9 16 0 22 -8 4 -9 3 -5 -4 5 -8
0 -12 -13 -12 -11 0 -22 -4 -25 -9 -4 -5 -14 -8 -24 -6 -9 1 -22 -1 -28 -6 -7
-5 -11 -3 -11 6 0 8 4 12 9 9 13 -8 9 2 -5 15 -10 8 -14 7 -15 -2 -2 -26 -8
-47 -17 -54 -4 -4 -6 -3 -2 2 3 6 -3 22 -13 35 -17 22 -18 22 -17 5 2 -16 -5
-20 -30 -22 -18 -1 -33 2 -33 6 0 13 48 81 97 138 l44 53 95 -77 c52 -42 94
-80 94 -85z m6368 -1126 c111 -55 202 -104 202 -109 -1 -4 -8 -7 -17 -5 -10 2
-12 -1 -7 -9 4 -7 3 -10 -4 -5 -5 3 -12 3 -15 -1 -2 -5 -2 -3 -1 4 4 16 -13
26 -21 13 -4 -6 -11 -7 -17 -4 -7 4 -8 2 -4 -5 4 -6 4 -20 1 -32 -6 -18 -9
-19 -23 -7 -19 16 -31 17 -49 5 -7 -5 -17 -6 -22 -2 -5 3 -13 0 -17 -6 -4 -7
-3 -9 3 -6 6 4 11 -4 11 -18 0 -14 -4 -22 -9 -19 -8 5 -13 -10 -10 -29 1 -5
-3 -6 -9 -2 -6 3 -8 10 -6 14 3 4 -1 8 -8 8 -8 0 -12 -9 -10 -21 3 -12 1 -15
-2 -8 -5 10 -9 9 -19 -5 -11 -14 -16 -15 -28 -5 -11 9 -17 10 -22 2 -4 -6 -4
-14 -1 -17 3 -4 6 0 6 7 0 11 3 11 12 2 14 -14 7 -23 -20 -25 -11 0 -18 -5
-16 -9 3 -4 0 -8 -6 -8 -6 0 -9 -4 -6 -9 11 -17 -26 -31 -56 -21 -5 1 -11 3
-15 4 -5 1 -15 5 -23 10 -12 7 -13 6 -2 -5 6 -7 12 -17 12 -22 0 -4 -6 -5 -12
-1 -8 5 -7 0 2 -11 9 -11 10 -16 3 -11 -8 4 -13 2 -14 -6 0 -7 -5 -4 -10 7 -8
17 -9 16 -6 -7 4 -25 3 -26 -16 -13 -23 16 -63 2 -51 -17 5 -7 11 -6 19 6 11
15 14 15 25 1 8 -9 9 -15 4 -14 -23 4 -35 -2 -28 -13 5 -9 2 -9 -9 1 -9 7 -17
10 -17 5 0 -5 -5 -2 -10 6 -6 10 -10 11 -10 2 0 -6 -5 -11 -12 -10 -6 2 -13
-6 -15 -17 l-3 -20 9 20 c8 16 10 16 10 4 1 -9 -5 -22 -13 -28 -11 -9 -18 -8
-32 6 -15 16 -17 16 -12 1 4 -9 0 -24 -8 -35 -9 -10 -13 -12 -9 -5 3 6 1 12
-4 12 -6 0 -11 -5 -11 -11 0 -8 -6 -7 -17 2 -15 13 -15 12 -4 -10 8 -15 9 -21
2 -17 -6 4 -11 1 -12 -6 -1 -7 -5 -2 -9 12 -8 25 -8 25 -10 -5 -1 -16 -4 -24
-7 -17 -4 9 -10 7 -23 -8 -17 -20 -19 -20 -23 -3 -4 15 -5 14 -6 -4 -1 -26
-18 -39 -46 -35 -15 2 -17 1 -7 -6 11 -7 6 -12 -19 -21 -40 -14 -42 -14 -33 1
4 7 3 8 -4 4 -6 -4 -8 -14 -5 -24 6 -15 5 -15 -10 -3 -15 12 -17 12 -11 -3 3
-9 1 -16 -5 -16 -6 0 -11 5 -11 12 0 6 -3 8 -6 5 -4 -4 -1 -14 7 -24 8 -9 9
-14 2 -10 -6 4 -14 3 -18 -3 -3 -5 -13 -10 -21 -10 -9 0 -12 5 -8 12 4 6 3 8
-4 5 -5 -4 -8 -17 -5 -30 5 -22 5 -22 -11 -2 -10 13 -14 14 -11 4 3 -8 -4 -24
-16 -35 -13 -10 -19 -14 -16 -8 4 7 1 14 -7 17 -10 4 -12 -1 -9 -16 5 -22 5
-22 -11 -2 -10 11 -15 14 -11 8 3 -7 0 -21 -7 -32 -10 -15 -15 -16 -25 -6 -6
7 -9 17 -5 21 4 5 -3 0 -15 -10 -19 -16 -21 -22 -11 -35 7 -9 9 -13 4 -9 -4 3
-20 3 -36 -2 -18 -5 -33 -4 -41 3 -10 10 -11 9 -2 -3 17 -24 12 -48 -9 -42
-10 2 -15 9 -11 15 3 6 1 7 -5 3 -6 -4 -9 -13 -5 -21 3 -10 -1 -15 -12 -15
-10 0 -13 5 -9 12 4 7 3 8 -5 4 -6 -4 -9 -11 -6 -16 3 -4 -3 -14 -12 -21 -15
-12 -16 -12 -10 3 5 15 4 16 -13 6 -11 -7 -16 -15 -12 -18 17 -13 8 -25 -19
-26 -17 -1 -36 -7 -42 -14 -10 -10 -8 -12 6 -7 11 4 16 3 12 -3 -3 -6 -13 -10
-21 -10 -19 0 -20 147 0 195 17 40 34 49 200 111 70 25 149 61 174 78 130 87
162 248 97 499 -33 130 -33 178 4 243 16 28 45 65 65 82 l35 31 193 -93 c106
-52 284 -139 396 -194z m-1570 -1212 c-7 -11 -14 -16 -16 -11 -4 12 -32 2 -32
-11 0 -5 6 -6 13 -2 8 5 8 2 -2 -9 -8 -10 -23 -15 -37 -13 -13 3 -26 0 -30 -5
-3 -5 -9 -7 -14 -4 -5 3 -11 1 -14 -4 -4 -5 -1 -13 5 -17 8 -5 9 -3 4 7 -5 8
-5 11 0 7 4 -4 14 -3 22 4 11 8 12 7 7 -6 -6 -14 -17 -20 -28 -13 -9 5 -45
-36 -39 -46 3 -6 1 -7 -6 -3 -9 6 -9 11 0 22 6 8 9 14 5 14 -3 0 -9 0 -13 0
-4 0 -8 -6 -10 -15 -2 -12 -7 -32 -12 -53 -1 -2 -6 0 -11 3 -8 5 -7 12 2 23 8
10 8 13 1 9 -6 -4 -13 -4 -16 0 -2 5 -2 3 -1 -4 2 -6 -4 -14 -12 -17 -8 -3
-14 0 -14 7 0 7 -5 4 -11 -6 -6 -9 -14 -15 -20 -12 -5 4 -12 -1 -15 -9 -3 -9
-11 -13 -17 -9 -5 3 -7 1 -4 -5 11 -17 -3 -44 -17 -33 -8 6 -17 6 -26 -1 -13
-8 -12 -9 2 -5 19 7 33 -19 16 -29 -7 -5 -8 -2 -3 6 6 10 4 12 -7 7 -9 -3 -22
0 -29 6 -7 7 -5 1 6 -13 11 -14 16 -22 11 -17 -5 4 -18 0 -28 -10 -20 -18 -25
-38 -6 -27 6 4 8 3 5 -3 -9 -15 -57 -10 -68 7 -8 12 -10 10 -6 -7 4 -16 0 -23
-10 -23 -8 0 -12 4 -9 8 3 5 -1 9 -9 9 -10 0 -12 -4 -5 -12 5 -7 7 -15 4 -18
-4 -4 3 -4 16 -2 19 4 20 2 9 -11 -12 -14 -16 -13 -37 12 -18 22 -21 23 -13 7
13 -25 3 -30 -18 -10 -7 6 -12 8 -11 2 1 -5 -1 -20 -5 -32 -6 -20 -28 -28 -65
-25 -3 0 -7 -13 -8 -30 -2 -26 0 -29 12 -19 11 9 16 9 22 -1 4 -7 3 -10 -1 -5
-12 10 -46 -23 -38 -37 3 -6 2 -8 -2 -3 -5 4 -18 -1 -29 -10 -18 -16 -19 -16
-8 -1 12 15 11 17 -7 15 -16 -1 -20 -7 -17 -24 3 -13 0 -22 -7 -20 -6 1 -11
-3 -12 -10 0 -6 -4 -15 -8 -20 -5 -4 -8 -3 -7 2 4 18 0 26 -10 20 -7 -4 -6
-14 1 -28 10 -21 10 -21 -5 -3 -12 15 -16 16 -17 5 0 -12 -1 -12 -6 0 -4 10
-10 5 -19 -15 -7 -16 -13 -22 -13 -14 -1 13 -3 13 -10 1 -5 -8 -16 -16 -25
-17 -12 -2 -14 2 -6 16 5 9 7 20 4 23 -3 3 0 8 7 12 9 6 10 0 5 -21 -5 -21 -4
-25 4 -14 5 8 10 24 11 35 1 16 2 15 8 -5 7 -25 7 -25 13 -2 3 12 2 22 -4 22
-5 0 -6 5 -3 11 5 6 11 4 19 -6 11 -16 13 -15 27 1 12 16 12 17 -3 11 -11 -4
-17 -2 -15 5 1 5 -6 12 -15 13 -10 2 -16 -1 -15 -7 1 -5 -6 -15 -15 -21 -56
-37 -8 70 69 153 114 123 246 201 558 326 99 40 183 73 188 73 4 1 2 -8 -5
-19z"/>
</g>
</svg>
